# xmcd
#
# Track frame offsets:
# 150
# 9702
# 23325
# 39042
# 51803
# 64358
# 81194
# 93275
# 110201
# 123111
# 133836
# 149136
# 160235
# 171097
#
# Disc length: 2500 seconds
#
#
# Revision: 0
# Processed by: cddbd v1.5.2PL0 Copyright (c) Steve Scherf et al.
# Submitted via: FreeRIP 2.944 
#
DISCID=ba09c20e
DTITLE=TIÃO CARRREIRO E CARREIRINHO - MEU CARRO MINHA VIOLA
DYEAR=1900
DGENRE=SERTANEJA
TTITLE0=O beijo
TTITLE1=Adeus Sao Paulo
TTITLE2=Boi Cigano
TTITLE3=Coração do Brasil
TTITLE4=Viva quem ama
TTITLE5=Triste caminho
TTITLE6=Remorso
TTITLE7=Terra Roxa
TTITLE8=A viola e o violeiro
TTITLE9=Minha História
TTITLE10=Meu carro é minha viola
TTITLE11=Falsa ilusão
TTITLE12=Saudades de minha terra
TTITLE13=Riqueza do Brasil
EXTD=
EXTT0=
EXTT1=
EXTT2=
EXTT3=
EXTT4=
EXTT5=
EXTT6=
EXTT7=
EXTT8=
EXTT9=
EXTT10=
EXTT11=
EXTT12=
EXTT13=
PLAYORDER=
